<?xml version="1.0" encoding="UTF-8" standalone="no"?>
<!DOCTYPE svg PUBLIC "-//W3C//DTD SVG 1.1//EN"
 "http://www.w3.org/Graphics/SVG/1.1/DTD/svg11.dtd">
<!-- Generated by graphviz version 2.47.0 (20210316.0004)
 -->
<!-- Title: dbml Pages: 1 -->
<svg width="1817pt" height="1867pt"
 viewBox="0.00 0.00 1816.65 1867.05" xmlns="http://www.w3.org/2000/svg" xmlns:xlink="http://www.w3.org/1999/xlink">
<g id="graph0" class="graph" transform="scale(1 1) rotate(0) translate(4 1863.05)">
<title>dbml</title>
<!-- territory -->
<g id="territory" class="node">
<title>territory</title>
<ellipse fill="none" stroke="black" stroke-width="0" cx="1535" cy="-731.53" rx="197.07" ry="130.22"/>
<polygon fill="#1d71b8" stroke="transparent" points="1398,-761.53 1398,-821.53 1673,-821.53 1673,-761.53 1398,-761.53"/>
<polygon fill="none" stroke="#29235c" points="1398,-761.53 1398,-821.53 1673,-821.53 1673,-761.53 1398,-761.53"/>
<text text-anchor="start" x="1419.04" y="-782.73" font-family="Helvetica,sans-Serif" font-weight="bold" font-size="32.00" fill="#ffffff"> &#160;&#160;&#160;&#160;&#160;&#160;territory &#160;&#160;&#160;&#160;&#160;&#160;</text>
<polygon fill="#e7e2dd" stroke="transparent" points="1398,-701.53 1398,-761.53 1673,-761.53 1673,-701.53 1398,-701.53"/>
<polygon fill="none" stroke="#29235c" points="1398,-701.53 1398,-761.53 1673,-761.53 1673,-701.53 1398,-701.53"/>
<text text-anchor="start" x="1409" y="-722.73" font-family="Helvetica,sans-Serif" font-weight="bold" font-size="32.00" fill="#29235c">id</text>
<text text-anchor="start" x="1433.89" y="-722.73" font-family="Helvetica,sans-Serif" font-size="32.00" fill="#29235c"> &#160;&#160;&#160;</text>
<text text-anchor="start" x="1601.54" y="-722.73" font-family="Helvetica,sans-Serif" font-style="italic" font-size="32.00" fill="#29235c">uuid</text>
<polygon fill="#e7e2dd" stroke="transparent" points="1398,-641.53 1398,-701.53 1673,-701.53 1673,-641.53 1398,-641.53"/>
<polygon fill="none" stroke="#29235c" points="1398,-641.53 1398,-701.53 1673,-701.53 1673,-641.53 1398,-641.53"/>
<text text-anchor="start" x="1408.6" y="-661.73" font-family="Helvetica,sans-Serif" font-size="32.00" fill="#29235c">superior_id &#160;&#160;&#160;</text>
<text text-anchor="start" x="1601.77" y="-662.73" font-family="Helvetica,sans-Serif" font-style="italic" font-size="32.00" fill="#29235c">uuid</text>
<polygon fill="none" stroke="#29235c" stroke-width="2" points="1396.5,-640.53 1396.5,-822.53 1673.5,-822.53 1673.5,-640.53 1396.5,-640.53"/>
</g>
<!-- territory&#45;&gt;territory -->
<!-- territory&#45;&gt;territory -->
<g id="edge2" class="edge">
<title>territory:e&#45;&gt;territory:w</title>
<path fill="none" stroke="#29235c" stroke-width="3" d="M1673,-671.53C1827.5,-720.9 1827.5,-879.64 1535.5,-879.64 1249.78,-879.64 1243.64,-785.1 1388.26,-734.78"/>
<polygon fill="#29235c" stroke="#29235c" stroke-width="3" points="1389.62,-738.02 1398,-731.53 1387.41,-731.38 1389.62,-738.02"/>
<text text-anchor="middle" x="1389.11" y="-741.13" font-family="Helvetica,sans-Serif" font-size="32.00" fill="#29235c">1</text>
<text text-anchor="middle" x="1664.11" y="-681.13" font-family="Helvetica,sans-Serif" font-size="32.00" fill="#29235c">1</text>
</g>
<!-- gv100ad -->
<g id="gv100ad" class="node">
<title>gv100ad</title>
<ellipse fill="none" stroke="black" stroke-width="0" cx="915.64" cy="-1389.53" rx="309.93" ry="469.54"/>
<polygon fill="#1d71b8" stroke="transparent" points="698.64,-1659.53 698.64,-1719.53 1132.64,-1719.53 1132.64,-1659.53 698.64,-1659.53"/>
<polygon fill="none" stroke="#29235c" points="698.64,-1659.53 698.64,-1719.53 1132.64,-1719.53 1132.64,-1659.53 698.64,-1659.53"/>
<text text-anchor="start" x="792.02" y="-1680.73" font-family="Helvetica,sans-Serif" font-weight="bold" font-size="32.00" fill="#ffffff"> &#160;&#160;&#160;&#160;&#160;&#160;gv100ad &#160;&#160;&#160;&#160;&#160;&#160;</text>
<polygon fill="#e7e2dd" stroke="transparent" points="698.64,-1599.53 698.64,-1659.53 1132.64,-1659.53 1132.64,-1599.53 698.64,-1599.53"/>
<polygon fill="none" stroke="#29235c" points="698.64,-1599.53 698.64,-1659.53 1132.64,-1659.53 1132.64,-1599.53 698.64,-1599.53"/>
<text text-anchor="start" x="709.64" y="-1620.73" font-family="Helvetica,sans-Serif" font-weight="bold" font-size="32.00" fill="#29235c">id</text>
<text text-anchor="start" x="734.53" y="-1620.73" font-family="Helvetica,sans-Serif" font-size="32.00" fill="#29235c"> &#160;&#160;&#160;</text>
<text text-anchor="start" x="1061.17" y="-1620.73" font-family="Helvetica,sans-Serif" font-style="italic" font-size="32.00" fill="#29235c">uuid</text>
<polygon fill="#e7e2dd" stroke="transparent" points="698.64,-1539.53 698.64,-1599.53 1132.64,-1599.53 1132.64,-1539.53 698.64,-1539.53"/>
<polygon fill="none" stroke="#29235c" points="698.64,-1539.53 698.64,-1599.53 1132.64,-1599.53 1132.64,-1539.53 698.64,-1539.53"/>
<text text-anchor="start" x="709.64" y="-1559.73" font-family="Helvetica,sans-Serif" font-size="32.00" fill="#29235c">bundesland &#160;&#160;&#160;</text>
<text text-anchor="start" x="981.22" y="-1560.73" font-family="Helvetica,sans-Serif" font-style="italic" font-size="32.00" fill="#29235c">char(2)</text>
<text text-anchor="start" x="1082.55" y="-1560.73" font-family="Helvetica,sans-Serif" font-size="32.00" fill="#29235c"> </text>
<text text-anchor="start" x="1091.44" y="-1560.73" font-family="Helvetica,sans-Serif" font-weight="bold" font-size="32.00" fill="#29235c">(!)</text>
<polygon fill="#e7e2dd" stroke="transparent" points="698.64,-1479.53 698.64,-1539.53 1132.64,-1539.53 1132.64,-1479.53 698.64,-1479.53"/>
<polygon fill="none" stroke="#29235c" points="698.64,-1479.53 698.64,-1539.53 1132.64,-1539.53 1132.64,-1479.53 698.64,-1479.53"/>
<text text-anchor="start" x="709.62" y="-1499.73" font-family="Helvetica,sans-Serif" font-size="32.00" fill="#29235c">regierungsbezirk &#160;&#160;&#160;</text>
<text text-anchor="start" x="981.43" y="-1500.73" font-family="Helvetica,sans-Serif" font-style="italic" font-size="32.00" fill="#29235c">char(1)</text>
<text text-anchor="start" x="1082.76" y="-1500.73" font-family="Helvetica,sans-Serif" font-size="32.00" fill="#29235c"> </text>
<text text-anchor="start" x="1091.65" y="-1500.73" font-family="Helvetica,sans-Serif" font-weight="bold" font-size="32.00" fill="#29235c">(!)</text>
<polygon fill="#e7e2dd" stroke="transparent" points="698.64,-1419.53 698.64,-1479.53 1132.64,-1479.53 1132.64,-1419.53 698.64,-1419.53"/>
<polygon fill="none" stroke="#29235c" points="698.64,-1419.53 698.64,-1479.53 1132.64,-1479.53 1132.64,-1419.53 698.64,-1419.53"/>
<text text-anchor="start" x="709.64" y="-1439.73" font-family="Helvetica,sans-Serif" font-size="32.00" fill="#29235c">landkreis &#160;&#160;&#160;</text>
<text text-anchor="start" x="981.22" y="-1440.73" font-family="Helvetica,sans-Serif" font-style="italic" font-size="32.00" fill="#29235c">char(2)</text>
<text text-anchor="start" x="1082.55" y="-1440.73" font-family="Helvetica,sans-Serif" font-size="32.00" fill="#29235c"> </text>
<text text-anchor="start" x="1091.44" y="-1440.73" font-family="Helvetica,sans-Serif" font-weight="bold" font-size="32.00" fill="#29235c">(!)</text>
<polygon fill="#e7e2dd" stroke="transparent" points="698.64,-1359.53 698.64,-1419.53 1132.64,-1419.53 1132.64,-1359.53 698.64,-1359.53"/>
<polygon fill="none" stroke="#29235c" points="698.64,-1359.53 698.64,-1419.53 1132.64,-1419.53 1132.64,-1359.53 698.64,-1359.53"/>
<text text-anchor="start" x="709.64" y="-1379.73" font-family="Helvetica,sans-Serif" font-size="32.00" fill="#29235c">verband &#160;&#160;&#160;</text>
<text text-anchor="start" x="981.22" y="-1380.73" font-family="Helvetica,sans-Serif" font-style="italic" font-size="32.00" fill="#29235c">char(4)</text>
<text text-anchor="start" x="1082.55" y="-1380.73" font-family="Helvetica,sans-Serif" font-size="32.00" fill="#29235c"> </text>
<text text-anchor="start" x="1091.44" y="-1380.73" font-family="Helvetica,sans-Serif" font-weight="bold" font-size="32.00" fill="#29235c">(!)</text>
<polygon fill="#e7e2dd" stroke="transparent" points="698.64,-1299.53 698.64,-1359.53 1132.64,-1359.53 1132.64,-1299.53 698.64,-1299.53"/>
<polygon fill="none" stroke="#29235c" points="698.64,-1299.53 698.64,-1359.53 1132.64,-1359.53 1132.64,-1299.53 698.64,-1299.53"/>
<text text-anchor="start" x="709.64" y="-1319.73" font-family="Helvetica,sans-Serif" font-size="32.00" fill="#29235c">gemeinde &#160;&#160;&#160;</text>
<text text-anchor="start" x="981.22" y="-1320.73" font-family="Helvetica,sans-Serif" font-style="italic" font-size="32.00" fill="#29235c">char(3)</text>
<text text-anchor="start" x="1082.55" y="-1320.73" font-family="Helvetica,sans-Serif" font-size="32.00" fill="#29235c"> </text>
<text text-anchor="start" x="1091.44" y="-1320.73" font-family="Helvetica,sans-Serif" font-weight="bold" font-size="32.00" fill="#29235c">(!)</text>
<polygon fill="#e7e2dd" stroke="transparent" points="698.64,-1239.53 698.64,-1299.53 1132.64,-1299.53 1132.64,-1239.53 698.64,-1239.53"/>
<polygon fill="none" stroke="#29235c" points="698.64,-1239.53 698.64,-1299.53 1132.64,-1299.53 1132.64,-1239.53 698.64,-1239.53"/>
<text text-anchor="start" x="709.64" y="-1259.73" font-family="Helvetica,sans-Serif" font-size="32.00" fill="#29235c">ars &#160;&#160;&#160;</text>
<text text-anchor="start" x="963.44" y="-1260.73" font-family="Helvetica,sans-Serif" font-style="italic" font-size="32.00" fill="#29235c">char(12)</text>
<text text-anchor="start" x="1082.55" y="-1260.73" font-family="Helvetica,sans-Serif" font-size="32.00" fill="#29235c"> </text>
<text text-anchor="start" x="1091.44" y="-1260.73" font-family="Helvetica,sans-Serif" font-weight="bold" font-size="32.00" fill="#29235c">(!)</text>
<polygon fill="#e7e2dd" stroke="transparent" points="698.64,-1179.53 698.64,-1239.53 1132.64,-1239.53 1132.64,-1179.53 698.64,-1179.53"/>
<polygon fill="none" stroke="#29235c" points="698.64,-1179.53 698.64,-1239.53 1132.64,-1239.53 1132.64,-1179.53 698.64,-1179.53"/>
<text text-anchor="start" x="709.64" y="-1199.73" font-family="Helvetica,sans-Serif" font-size="32.00" fill="#29235c">ags &#160;&#160;&#160;</text>
<text text-anchor="start" x="981.22" y="-1200.73" font-family="Helvetica,sans-Serif" font-style="italic" font-size="32.00" fill="#29235c">char(8)</text>
<text text-anchor="start" x="1082.55" y="-1200.73" font-family="Helvetica,sans-Serif" font-size="32.00" fill="#29235c"> </text>
<text text-anchor="start" x="1091.44" y="-1200.73" font-family="Helvetica,sans-Serif" font-weight="bold" font-size="32.00" fill="#29235c">(!)</text>
<polygon fill="#e7e2dd" stroke="transparent" points="698.64,-1119.53 698.64,-1179.53 1132.64,-1179.53 1132.64,-1119.53 698.64,-1119.53"/>
<polygon fill="none" stroke="#29235c" points="698.64,-1119.53 698.64,-1179.53 1132.64,-1179.53 1132.64,-1119.53 698.64,-1119.53"/>
<text text-anchor="start" x="709.64" y="-1139.73" font-family="Helvetica,sans-Serif" font-size="32.00" fill="#29235c">satz &#160;&#160;&#160;</text>
<text text-anchor="start" x="1030.98" y="-1140.73" font-family="Helvetica,sans-Serif" font-style="italic" font-size="32.00" fill="#29235c">text</text>
<text text-anchor="start" x="1082.55" y="-1140.73" font-family="Helvetica,sans-Serif" font-size="32.00" fill="#29235c"> </text>
<text text-anchor="start" x="1091.44" y="-1140.73" font-family="Helvetica,sans-Serif" font-weight="bold" font-size="32.00" fill="#29235c">(!)</text>
<polygon fill="#e7e2dd" stroke="transparent" points="698.64,-1059.53 698.64,-1119.53 1132.64,-1119.53 1132.64,-1059.53 698.64,-1059.53"/>
<polygon fill="none" stroke="#29235c" points="698.64,-1059.53 698.64,-1119.53 1132.64,-1119.53 1132.64,-1059.53 698.64,-1059.53"/>
<text text-anchor="start" x="709.64" y="-1079.73" font-family="Helvetica,sans-Serif" font-size="32.00" fill="#29235c">art &#160;&#160;&#160;</text>
<text text-anchor="start" x="1030.98" y="-1080.73" font-family="Helvetica,sans-Serif" font-style="italic" font-size="32.00" fill="#29235c">text</text>
<text text-anchor="start" x="1082.55" y="-1080.73" font-family="Helvetica,sans-Serif" font-size="32.00" fill="#29235c"> </text>
<text text-anchor="start" x="1091.44" y="-1080.73" font-family="Helvetica,sans-Serif" font-weight="bold" font-size="32.00" fill="#29235c">(!)</text>
<polygon fill="none" stroke="#29235c" stroke-width="2" points="697.64,-1058.53 697.64,-1720.53 1133.64,-1720.53 1133.64,-1058.53 697.64,-1058.53"/>
</g>
<!-- gv100ad&#45;&gt;territory -->
<!-- gv100ad&#45;&gt;territory -->
<g id="edge4" class="edge">
<title>gv100ad:e&#45;&gt;territory:w</title>
<path fill="none" stroke="#29235c" stroke-width="3" d="M1133.64,-1629.53C1338.15,-1629.53 1194.01,-761.1 1386.94,-732.27"/>
<polygon fill="#29235c" stroke="#29235c" stroke-width="3" points="1387.29,-735.75 1397,-731.53 1386.78,-728.77 1387.29,-735.75"/>
<text text-anchor="middle" x="1388.11" y="-702.73" font-family="Helvetica,sans-Serif" font-size="32.00" fill="#29235c">1</text>
<text text-anchor="middle" x="1124.75" y="-1639.13" font-family="Helvetica,sans-Serif" font-size="32.00" fill="#29235c">1</text>
</g>
<!-- gv100ad_satzart -->
<g id="gv100ad_satzart" class="node">
<title>gv100ad_satzart</title>
<ellipse fill="none" stroke="black" stroke-width="0" cx="1535" cy="-1599.53" rx="273.8" ry="172.57"/>
<polygon fill="#1d71b8" stroke="transparent" points="1344,-1659.53 1344,-1719.53 1727,-1719.53 1727,-1659.53 1344,-1659.53"/>
<polygon fill="none" stroke="#29235c" points="1344,-1659.53 1344,-1719.53 1727,-1719.53 1727,-1659.53 1344,-1659.53"/>
<text text-anchor="start" x="1354.99" y="-1680.73" font-family="Helvetica,sans-Serif" font-weight="bold" font-size="32.00" fill="#ffffff"> &#160;&#160;&#160;&#160;&#160;&#160;gv100ad_satzart &#160;&#160;&#160;&#160;&#160;&#160;</text>
<polygon fill="#e7e2dd" stroke="transparent" points="1344,-1599.53 1344,-1659.53 1727,-1659.53 1727,-1599.53 1344,-1599.53"/>
<polygon fill="none" stroke="#29235c" points="1344,-1599.53 1344,-1659.53 1727,-1659.53 1727,-1599.53 1344,-1599.53"/>
<text text-anchor="start" x="1355" y="-1620.73" font-family="Helvetica,sans-Serif" font-weight="bold" font-size="32.00" fill="#29235c">id</text>
<text text-anchor="start" x="1379.89" y="-1620.73" font-family="Helvetica,sans-Serif" font-size="32.00" fill="#29235c"> &#160;&#160;&#160;</text>
<text text-anchor="start" x="1655.54" y="-1620.73" font-family="Helvetica,sans-Serif" font-style="italic" font-size="32.00" fill="#29235c">uuid</text>
<polygon fill="#e7e2dd" stroke="transparent" points="1344,-1539.53 1344,-1599.53 1727,-1599.53 1727,-1539.53 1344,-1539.53"/>
<polygon fill="none" stroke="#29235c" points="1344,-1539.53 1344,-1599.53 1727,-1599.53 1727,-1539.53 1344,-1539.53"/>
<text text-anchor="start" x="1355" y="-1559.73" font-family="Helvetica,sans-Serif" font-size="32.00" fill="#29235c">number &#160;&#160;&#160;</text>
<text text-anchor="start" x="1682.22" y="-1560.73" font-family="Helvetica,sans-Serif" font-style="italic" font-size="32.00" fill="#29235c">int</text>
<polygon fill="#e7e2dd" stroke="transparent" points="1344,-1479.53 1344,-1539.53 1727,-1539.53 1727,-1479.53 1344,-1479.53"/>
<polygon fill="none" stroke="#29235c" points="1344,-1479.53 1344,-1539.53 1727,-1539.53 1727,-1479.53 1344,-1479.53"/>
<text text-anchor="start" x="1355" y="-1499.73" font-family="Helvetica,sans-Serif" font-size="32.00" fill="#29235c">name &#160;&#160;&#160;</text>
<text text-anchor="start" x="1664.43" y="-1500.73" font-family="Helvetica,sans-Serif" font-style="italic" font-size="32.00" fill="#29235c">text</text>
<polygon fill="none" stroke="#29235c" stroke-width="2" points="1342.5,-1478.53 1342.5,-1720.53 1727.5,-1720.53 1727.5,-1478.53 1342.5,-1478.53"/>
</g>
<!-- gv100ad&#45;&gt;gv100ad_satzart -->
<!-- gv100ad&#45;&gt;gv100ad_satzart -->
<g id="edge6" class="edge">
<title>gv100ad:e&#45;&gt;gv100ad_satzart:w</title>
<path fill="none" stroke="#29235c" stroke-width="3" d="M1133.64,-1149.53C1338.75,-1149.53 1141.21,-1555.7 1332.96,-1569.19"/>
<polygon fill="#29235c" stroke="#29235c" stroke-width="3" points="1332.89,-1572.69 1343,-1569.53 1333.13,-1565.69 1332.89,-1572.69"/>
<text text-anchor="middle" x="1334.11" y="-1579.13" font-family="Helvetica,sans-Serif" font-size="32.00" fill="#29235c">1</text>
<text text-anchor="middle" x="1124.75" y="-1159.13" font-family="Helvetica,sans-Serif" font-size="32.00" fill="#29235c">1</text>
</g>
<!-- gv100ad&#45;&gt;gv100ad_satzart -->
<!-- gv100ad&#45;&gt;gv100ad_satzart -->
<g id="edge8" class="edge">
<title>gv100ad:e&#45;&gt;gv100ad_satzart:w</title>
<path fill="none" stroke="#29235c" stroke-width="3" d="M1133.64,-1089.53C1362.86,-1089.53 1117.9,-1555.11 1332.77,-1569.21"/>
<polygon fill="#29235c" stroke="#29235c" stroke-width="3" points="1332.9,-1572.71 1343,-1569.53 1333.12,-1565.72 1332.9,-1572.71"/>
<text text-anchor="middle" x="1351.9" y="-1579.13" font-family="Helvetica,sans-Serif" font-size="32.00" fill="#29235c">1</text>
<text text-anchor="middle" x="1124.75" y="-1099.13" font-family="Helvetica,sans-Serif" font-size="32.00" fill="#29235c">1</text>
</g>
<!-- fund -->
<g id="fund" class="node">
<title>fund</title>
<ellipse fill="none" stroke="black" stroke-width="0" cx="915.64" cy="-172.53" rx="192.17" ry="172.57"/>
<polygon fill="#1d71b8" stroke="transparent" points="781.64,-232.53 781.64,-292.53 1049.64,-292.53 1049.64,-232.53 781.64,-232.53"/>
<polygon fill="none" stroke="#29235c" points="781.64,-232.53 781.64,-292.53 1049.64,-292.53 1049.64,-232.53 781.64,-232.53"/>
<text text-anchor="start" x="822.26" y="-253.73" font-family="Helvetica,sans-Serif" font-weight="bold" font-size="32.00" fill="#ffffff"> &#160;&#160;&#160;&#160;&#160;&#160;fund &#160;&#160;&#160;&#160;&#160;&#160;</text>
<polygon fill="#e7e2dd" stroke="transparent" points="781.64,-172.53 781.64,-232.53 1049.64,-232.53 1049.64,-172.53 781.64,-172.53"/>
<polygon fill="none" stroke="#29235c" points="781.64,-172.53 781.64,-232.53 1049.64,-232.53 1049.64,-172.53 781.64,-172.53"/>
<text text-anchor="start" x="792.64" y="-193.73" font-family="Helvetica,sans-Serif" font-weight="bold" font-size="32.00" fill="#29235c">id</text>
<text text-anchor="start" x="817.53" y="-193.73" font-family="Helvetica,sans-Serif" font-size="32.00" fill="#29235c"> &#160;&#160;&#160;</text>
<text text-anchor="start" x="978.17" y="-193.73" font-family="Helvetica,sans-Serif" font-style="italic" font-size="32.00" fill="#29235c">uuid</text>
<polygon fill="#e7e2dd" stroke="transparent" points="781.64,-112.53 781.64,-172.53 1049.64,-172.53 1049.64,-112.53 781.64,-112.53"/>
<polygon fill="none" stroke="#29235c" points="781.64,-112.53 781.64,-172.53 1049.64,-172.53 1049.64,-112.53 781.64,-112.53"/>
<text text-anchor="start" x="792.64" y="-132.73" font-family="Helvetica,sans-Serif" font-size="32.00" fill="#29235c">name &#160;&#160;&#160;</text>
<text text-anchor="start" x="947.98" y="-133.73" font-family="Helvetica,sans-Serif" font-style="italic" font-size="32.00" fill="#29235c">text</text>
<text text-anchor="start" x="999.55" y="-133.73" font-family="Helvetica,sans-Serif" font-size="32.00" fill="#29235c"> </text>
<text text-anchor="start" x="1008.44" y="-133.73" font-family="Helvetica,sans-Serif" font-weight="bold" font-size="32.00" fill="#29235c">(!)</text>
<polygon fill="#e7e2dd" stroke="transparent" points="781.64,-52.53 781.64,-112.53 1049.64,-112.53 1049.64,-52.53 781.64,-52.53"/>
<polygon fill="none" stroke="#29235c" points="781.64,-52.53 781.64,-112.53 1049.64,-112.53 1049.64,-52.53 781.64,-52.53"/>
<text text-anchor="start" x="792.3" y="-72.73" font-family="Helvetica,sans-Serif" font-size="32.00" fill="#29235c">territory_id &#160;&#160;&#160;</text>
<text text-anchor="start" x="978.41" y="-73.73" font-family="Helvetica,sans-Serif" font-style="italic" font-size="32.00" fill="#29235c">uuid</text>
<polygon fill="none" stroke="#29235c" stroke-width="2" points="780.64,-51.53 780.64,-293.53 1050.64,-293.53 1050.64,-51.53 780.64,-51.53"/>
</g>
<!-- fund&#45;&gt;territory -->
<!-- fund&#45;&gt;territory -->
<g id="edge10" class="edge">
<title>fund:e&#45;&gt;territory:w</title>
<path fill="none" stroke="#29235c" stroke-width="3" d="M1050.64,-82.53C1194.32,-82.53 1156.58,-228.38 1225.35,-354.53 1311.8,-513.1 1216.66,-723.35 1386.79,-731.3"/>
<polygon fill="#29235c" stroke="#29235c" stroke-width="3" points="1386.93,-734.81 1397,-731.53 1387.09,-727.81 1386.93,-734.81"/>
<text text-anchor="middle" x="1405.9" y="-702.73" font-family="Helvetica,sans-Serif" font-size="32.00" fill="#29235c">1</text>
<text text-anchor="middle" x="1041.75" y="-53.73" font-family="Helvetica,sans-Serif" font-size="32.00" fill="#29235c">1</text>
</g>
<!-- postcode -->
<g id="postcode" class="node">
<title>postcode</title>
<ellipse fill="none" stroke="black" stroke-width="0" cx="915.64" cy="-771.53" rx="263.09" ry="130.22"/>
<polygon fill="#1d71b8" stroke="transparent" points="731.64,-801.53 731.64,-861.53 1099.64,-861.53 1099.64,-801.53 731.64,-801.53"/>
<polygon fill="none" stroke="#29235c" points="731.64,-801.53 731.64,-861.53 1099.64,-861.53 1099.64,-801.53 731.64,-801.53"/>
<text text-anchor="start" x="788.47" y="-822.73" font-family="Helvetica,sans-Serif" font-weight="bold" font-size="32.00" fill="#ffffff"> &#160;&#160;&#160;&#160;&#160;&#160;postcode &#160;&#160;&#160;&#160;&#160;&#160;</text>
<polygon fill="#e7e2dd" stroke="transparent" points="731.64,-741.53 731.64,-801.53 1099.64,-801.53 1099.64,-741.53 731.64,-741.53"/>
<polygon fill="none" stroke="#29235c" points="731.64,-741.53 731.64,-801.53 1099.64,-801.53 1099.64,-741.53 731.64,-741.53"/>
<text text-anchor="start" x="742.64" y="-762.73" font-family="Helvetica,sans-Serif" font-weight="bold" font-size="32.00" fill="#29235c">id</text>
<text text-anchor="start" x="767.53" y="-762.73" font-family="Helvetica,sans-Serif" font-size="32.00" fill="#29235c"> &#160;&#160;&#160;</text>
<text text-anchor="start" x="1028.17" y="-762.73" font-family="Helvetica,sans-Serif" font-style="italic" font-size="32.00" fill="#29235c">uuid</text>
<polygon fill="#e7e2dd" stroke="transparent" points="731.64,-681.53 731.64,-741.53 1099.64,-741.53 1099.64,-681.53 731.64,-681.53"/>
<polygon fill="none" stroke="#29235c" points="731.64,-681.53 731.64,-741.53 1099.64,-741.53 1099.64,-681.53 731.64,-681.53"/>
<text text-anchor="start" x="742.62" y="-701.73" font-family="Helvetica,sans-Serif" font-size="32.00" fill="#29235c">number &#160;&#160;&#160;</text>
<text text-anchor="start" x="886.32" y="-702.73" font-family="Helvetica,sans-Serif" font-style="italic" font-size="32.00" fill="#29235c">varchar(20)</text>
<text text-anchor="start" x="1049.87" y="-702.73" font-family="Helvetica,sans-Serif" font-size="32.00" fill="#29235c"> </text>
<text text-anchor="start" x="1058.77" y="-702.73" font-family="Helvetica,sans-Serif" font-weight="bold" font-size="32.00" fill="#29235c">(!)</text>
<polygon fill="none" stroke="#29235c" stroke-width="2" points="730.64,-680.53 730.64,-862.53 1100.64,-862.53 1100.64,-680.53 730.64,-680.53"/>
</g>
<!-- donation -->
<g id="donation" class="node">
<title>donation</title>
<ellipse fill="none" stroke="black" stroke-width="0" cx="284.96" cy="-373.53" rx="277.79" ry="299.63"/>
<polygon fill="#1d71b8" stroke="transparent" points="90.96,-523.53 90.96,-583.53 479.96,-583.53 479.96,-523.53 90.96,-523.53"/>
<polygon fill="none" stroke="#29235c" points="90.96,-523.53 90.96,-583.53 479.96,-583.53 479.96,-523.53 90.96,-523.53"/>
<text text-anchor="start" x="161.85" y="-544.73" font-family="Helvetica,sans-Serif" font-weight="bold" font-size="32.00" fill="#ffffff"> &#160;&#160;&#160;&#160;&#160;&#160;donation &#160;&#160;&#160;&#160;&#160;&#160;</text>
<polygon fill="#e7e2dd" stroke="transparent" points="90.96,-463.53 90.96,-523.53 479.96,-523.53 479.96,-463.53 90.96,-463.53"/>
<polygon fill="none" stroke="#29235c" points="90.96,-463.53 90.96,-523.53 479.96,-523.53 479.96,-463.53 90.96,-463.53"/>
<text text-anchor="start" x="101.96" y="-484.73" font-family="Helvetica,sans-Serif" font-weight="bold" font-size="32.00" fill="#29235c">id</text>
<text text-anchor="start" x="126.85" y="-484.73" font-family="Helvetica,sans-Serif" font-size="32.00" fill="#29235c"> &#160;&#160;&#160;</text>
<text text-anchor="start" x="408.5" y="-484.73" font-family="Helvetica,sans-Serif" font-style="italic" font-size="32.00" fill="#29235c">uuid</text>
<polygon fill="#e7e2dd" stroke="transparent" points="90.96,-403.53 90.96,-463.53 479.96,-463.53 479.96,-403.53 90.96,-403.53"/>
<polygon fill="none" stroke="#29235c" points="90.96,-403.53 90.96,-463.53 479.96,-463.53 479.96,-403.53 90.96,-403.53"/>
<text text-anchor="start" x="101.96" y="-423.73" font-family="Helvetica,sans-Serif" font-size="32.00" fill="#29235c">user_id &#160;&#160;&#160;</text>
<text text-anchor="start" x="369.41" y="-424.73" font-family="Helvetica,sans-Serif" font-style="italic" font-size="32.00" fill="#29235c">uuid</text>
<text text-anchor="start" x="429.87" y="-424.73" font-family="Helvetica,sans-Serif" font-size="32.00" fill="#29235c"> </text>
<text text-anchor="start" x="438.77" y="-424.73" font-family="Helvetica,sans-Serif" font-weight="bold" font-size="32.00" fill="#29235c">(!)</text>
<polygon fill="#e7e2dd" stroke="transparent" points="90.96,-343.53 90.96,-403.53 479.96,-403.53 479.96,-343.53 90.96,-343.53"/>
<polygon fill="none" stroke="#29235c" points="90.96,-343.53 90.96,-403.53 479.96,-403.53 479.96,-343.53 90.96,-343.53"/>
<text text-anchor="start" x="101.96" y="-363.73" font-family="Helvetica,sans-Serif" font-size="32.00" fill="#29235c">fund_id &#160;&#160;&#160;</text>
<text text-anchor="start" x="369.41" y="-364.73" font-family="Helvetica,sans-Serif" font-style="italic" font-size="32.00" fill="#29235c">uuid</text>
<text text-anchor="start" x="429.87" y="-364.73" font-family="Helvetica,sans-Serif" font-size="32.00" fill="#29235c"> </text>
<text text-anchor="start" x="438.77" y="-364.73" font-family="Helvetica,sans-Serif" font-weight="bold" font-size="32.00" fill="#29235c">(!)</text>
<polygon fill="#e7e2dd" stroke="transparent" points="90.96,-283.53 90.96,-343.53 479.96,-343.53 479.96,-283.53 90.96,-283.53"/>
<polygon fill="none" stroke="#29235c" points="90.96,-283.53 90.96,-343.53 479.96,-343.53 479.96,-283.53 90.96,-283.53"/>
<text text-anchor="start" x="101.76" y="-303.73" font-family="Helvetica,sans-Serif" font-size="32.00" fill="#29235c">postcode &#160;&#160;&#160;</text>
<text text-anchor="start" x="266.64" y="-304.73" font-family="Helvetica,sans-Serif" font-style="italic" font-size="32.00" fill="#29235c">varchar(20)</text>
<text text-anchor="start" x="430.2" y="-304.73" font-family="Helvetica,sans-Serif" font-size="32.00" fill="#29235c"> </text>
<text text-anchor="start" x="439.09" y="-304.73" font-family="Helvetica,sans-Serif" font-weight="bold" font-size="32.00" fill="#29235c">(!)</text>
<polygon fill="#e7e2dd" stroke="transparent" points="90.96,-223.53 90.96,-283.53 479.96,-283.53 479.96,-223.53 90.96,-223.53"/>
<polygon fill="none" stroke="#29235c" points="90.96,-223.53 90.96,-283.53 479.96,-283.53 479.96,-223.53 90.96,-223.53"/>
<text text-anchor="start" x="101.96" y="-243.73" font-family="Helvetica,sans-Serif" font-size="32.00" fill="#29235c">amount &#160;&#160;&#160;</text>
<text text-anchor="start" x="396.09" y="-244.73" font-family="Helvetica,sans-Serif" font-style="italic" font-size="32.00" fill="#29235c">int</text>
<text text-anchor="start" x="429.87" y="-244.73" font-family="Helvetica,sans-Serif" font-size="32.00" fill="#29235c"> </text>
<text text-anchor="start" x="438.77" y="-244.73" font-family="Helvetica,sans-Serif" font-weight="bold" font-size="32.00" fill="#29235c">(!)</text>
<polygon fill="#e7e2dd" stroke="transparent" points="90.96,-163.53 90.96,-223.53 479.96,-223.53 479.96,-163.53 90.96,-163.53"/>
<polygon fill="none" stroke="#29235c" points="90.96,-163.53 90.96,-223.53 479.96,-223.53 479.96,-163.53 90.96,-163.53"/>
<text text-anchor="start" x="101.96" y="-183.73" font-family="Helvetica,sans-Serif" font-size="32.00" fill="#29235c">org_percentage &#160;&#160;&#160;</text>
<text text-anchor="start" x="396.09" y="-184.73" font-family="Helvetica,sans-Serif" font-style="italic" font-size="32.00" fill="#29235c">int</text>
<text text-anchor="start" x="429.87" y="-184.73" font-family="Helvetica,sans-Serif" font-size="32.00" fill="#29235c"> </text>
<text text-anchor="start" x="438.77" y="-184.73" font-family="Helvetica,sans-Serif" font-weight="bold" font-size="32.00" fill="#29235c">(!)</text>
<polygon fill="none" stroke="#29235c" stroke-width="2" points="89.46,-162.53 89.46,-584.53 480.46,-584.53 480.46,-162.53 89.46,-162.53"/>
</g>
<!-- donation&#45;&gt;fund -->
<!-- donation&#45;&gt;fund -->
<g id="edge14" class="edge">
<title>donation:e&#45;&gt;fund:w</title>
<path fill="none" stroke="#29235c" stroke-width="3" d="M480.96,-373.53C630.87,-373.53 627.53,-210.13 770.55,-202.79"/>
<polygon fill="#29235c" stroke="#29235c" stroke-width="3" points="770.73,-206.29 780.64,-202.53 770.56,-199.29 770.73,-206.29"/>
<text text-anchor="middle" x="771.75" y="-212.13" font-family="Helvetica,sans-Serif" font-size="32.00" fill="#29235c">1</text>
<text text-anchor="middle" x="472.07" y="-383.13" font-family="Helvetica,sans-Serif" font-size="32.00" fill="#29235c">1</text>
</g>
<!-- donation&#45;&gt;postcode -->
<!-- donation&#45;&gt;postcode -->
<g id="edge16" class="edge">
<title>donation:e&#45;&gt;postcode:w</title>
<path fill="none" stroke="#29235c" stroke-width="3" d="M480.96,-313.53C633.23,-313.53 509.03,-515.07 605.93,-632.53 645.4,-680.38 663.06,-708.36 720.3,-711.28"/>
<polygon fill="#29235c" stroke="#29235c" stroke-width="3" points="720.56,-714.79 730.64,-711.53 720.73,-707.79 720.56,-714.79"/>
<text text-anchor="middle" x="721.75" y="-721.13" font-family="Helvetica,sans-Serif" font-size="32.00" fill="#29235c">1</text>
<text text-anchor="middle" x="472.07" y="-323.13" font-family="Helvetica,sans-Serif" font-size="32.00" fill="#29235c">1</text>
</g>
<!-- user -->
<g id="user" class="node">
<title>user</title>
<ellipse fill="none" stroke="black" stroke-width="0" cx="915.64" cy="-493.53" rx="164.51" ry="130.22"/>
<polygon fill="#1d71b8" stroke="transparent" points="801.64,-523.53 801.64,-583.53 1030.64,-583.53 1030.64,-523.53 801.64,-523.53"/>
<polygon fill="none" stroke="#29235c" points="801.64,-523.53 801.64,-583.53 1030.64,-583.53 1030.64,-523.53 801.64,-523.53"/>
<text text-anchor="start" x="822.78" y="-544.73" font-family="Helvetica,sans-Serif" font-weight="bold" font-size="32.00" fill="#ffffff"> &#160;&#160;&#160;&#160;&#160;&#160;user &#160;&#160;&#160;&#160;&#160;&#160;</text>
<polygon fill="#e7e2dd" stroke="transparent" points="801.64,-463.53 801.64,-523.53 1030.64,-523.53 1030.64,-463.53 801.64,-463.53"/>
<polygon fill="none" stroke="#29235c" points="801.64,-463.53 801.64,-523.53 1030.64,-523.53 1030.64,-463.53 801.64,-463.53"/>
<text text-anchor="start" x="812.64" y="-484.73" font-family="Helvetica,sans-Serif" font-weight="bold" font-size="32.00" fill="#29235c">id</text>
<text text-anchor="start" x="837.53" y="-484.73" font-family="Helvetica,sans-Serif" font-size="32.00" fill="#29235c"> &#160;&#160;&#160;</text>
<text text-anchor="start" x="959.17" y="-484.73" font-family="Helvetica,sans-Serif" font-style="italic" font-size="32.00" fill="#29235c">uuid</text>
<polygon fill="#e7e2dd" stroke="transparent" points="801.64,-403.53 801.64,-463.53 1030.64,-463.53 1030.64,-403.53 801.64,-403.53"/>
<polygon fill="none" stroke="#29235c" points="801.64,-403.53 801.64,-463.53 1030.64,-463.53 1030.64,-403.53 801.64,-403.53"/>
<text text-anchor="start" x="812.4" y="-423.73" font-family="Helvetica,sans-Serif" font-size="32.00" fill="#29235c">stripe_id &#160;&#160;&#160;</text>
<text text-anchor="start" x="968.35" y="-424.73" font-family="Helvetica,sans-Serif" font-style="italic" font-size="32.00" fill="#29235c">text</text>
<polygon fill="none" stroke="#29235c" stroke-width="2" points="800.14,-402.53 800.14,-584.53 1031.14,-584.53 1031.14,-402.53 800.14,-402.53"/>
</g>
<!-- donation&#45;&gt;user -->
<!-- donation&#45;&gt;user -->
<g id="edge12" class="edge">
<title>donation:e&#45;&gt;user:w</title>
<path fill="none" stroke="#29235c" stroke-width="3" d="M480.96,-433.53C621.99,-433.53 654.52,-490.64 790.25,-493.43"/>
<polygon fill="#29235c" stroke="#29235c" stroke-width="3" points="790.61,-496.93 800.64,-493.53 790.68,-489.93 790.61,-496.93"/>
<text text-anchor="middle" x="791.75" y="-503.13" font-family="Helvetica,sans-Serif" font-size="32.00" fill="#29235c">1</text>
<text text-anchor="middle" x="472.07" y="-443.13" font-family="Helvetica,sans-Serif" font-size="32.00" fill="#29235c">1</text>
</g>
<!-- gv10ad_postcode -->
<g id="gv10ad_postcode" class="node">
<title>gv10ad_postcode</title>
<ellipse fill="none" stroke="black" stroke-width="0" cx="284.96" cy="-1111.53" rx="284.93" ry="172.57"/>
<polygon fill="#1d71b8" stroke="transparent" points="85.96,-1171.53 85.96,-1231.53 484.96,-1231.53 484.96,-1171.53 85.96,-1171.53"/>
<polygon fill="none" stroke="#29235c" points="85.96,-1171.53 85.96,-1231.53 484.96,-1231.53 484.96,-1171.53 85.96,-1171.53"/>
<text text-anchor="start" x="96.93" y="-1192.73" font-family="Helvetica,sans-Serif" font-weight="bold" font-size="32.00" fill="#ffffff"> &#160;&#160;&#160;&#160;&#160;&#160;gv10ad_postcode &#160;&#160;&#160;&#160;&#160;&#160;</text>
<polygon fill="#e7e2dd" stroke="transparent" points="85.96,-1111.53 85.96,-1171.53 484.96,-1171.53 484.96,-1111.53 85.96,-1111.53"/>
<polygon fill="none" stroke="#29235c" points="85.96,-1111.53 85.96,-1171.53 484.96,-1171.53 484.96,-1111.53 85.96,-1111.53"/>
<text text-anchor="start" x="96.96" y="-1132.73" font-family="Helvetica,sans-Serif" font-weight="bold" font-size="32.00" fill="#29235c">id</text>
<text text-anchor="start" x="121.85" y="-1132.73" font-family="Helvetica,sans-Serif" font-size="32.00" fill="#29235c"> &#160;&#160;&#160;</text>
<text text-anchor="start" x="413.5" y="-1132.73" font-family="Helvetica,sans-Serif" font-style="italic" font-size="32.00" fill="#29235c">uuid</text>
<polygon fill="#e7e2dd" stroke="transparent" points="85.96,-1051.53 85.96,-1111.53 484.96,-1111.53 484.96,-1051.53 85.96,-1051.53"/>
<polygon fill="none" stroke="#29235c" points="85.96,-1051.53 85.96,-1111.53 484.96,-1111.53 484.96,-1051.53 85.96,-1051.53"/>
<text text-anchor="start" x="96.96" y="-1071.73" font-family="Helvetica,sans-Serif" font-size="32.00" fill="#29235c">postcode &#160;&#160;&#160;</text>
<text text-anchor="start" x="271.32" y="-1072.73" font-family="Helvetica,sans-Serif" font-style="italic" font-size="32.00" fill="#29235c">varchar(20)</text>
<text text-anchor="start" x="434.87" y="-1072.73" font-family="Helvetica,sans-Serif" font-size="32.00" fill="#29235c"> </text>
<text text-anchor="start" x="443.77" y="-1072.73" font-family="Helvetica,sans-Serif" font-weight="bold" font-size="32.00" fill="#29235c">(!)</text>
<polygon fill="#e7e2dd" stroke="transparent" points="85.96,-991.53 85.96,-1051.53 484.96,-1051.53 484.96,-991.53 85.96,-991.53"/>
<polygon fill="none" stroke="#29235c" points="85.96,-991.53 85.96,-1051.53 484.96,-1051.53 484.96,-991.53 85.96,-991.53"/>
<text text-anchor="start" x="96.96" y="-1011.73" font-family="Helvetica,sans-Serif" font-size="32.00" fill="#29235c">ars &#160;&#160;&#160;</text>
<text text-anchor="start" x="315.76" y="-1012.73" font-family="Helvetica,sans-Serif" font-style="italic" font-size="32.00" fill="#29235c">char(12)</text>
<text text-anchor="start" x="434.87" y="-1012.73" font-family="Helvetica,sans-Serif" font-size="32.00" fill="#29235c"> </text>
<text text-anchor="start" x="443.77" y="-1012.73" font-family="Helvetica,sans-Serif" font-weight="bold" font-size="32.00" fill="#29235c">(!)</text>
<polygon fill="none" stroke="#29235c" stroke-width="2" points="84.46,-990.53 84.46,-1232.53 485.46,-1232.53 485.46,-990.53 84.46,-990.53"/>
</g>
<!-- gv10ad_postcode&#45;&gt;gv100ad -->
<!-- gv10ad_postcode&#45;&gt;gv100ad -->
<g id="edge20" class="edge">
<title>gv10ad_postcode:e&#45;&gt;gv100ad:w</title>
<path fill="none" stroke="#29235c" stroke-width="3" d="M485.96,-1021.53C627.34,-1021.53 556.41,-1257.57 687.42,-1269.1"/>
<polygon fill="#29235c" stroke="#29235c" stroke-width="3" points="687.5,-1272.6 697.64,-1269.53 687.8,-1265.61 687.5,-1272.6"/>
<text text-anchor="middle" x="688.75" y="-1279.13" font-family="Helvetica,sans-Serif" font-size="32.00" fill="#29235c">1</text>
<text text-anchor="middle" x="477.07" y="-1031.13" font-family="Helvetica,sans-Serif" font-size="32.00" fill="#29235c">1</text>
</g>
<!-- gv10ad_postcode&#45;&gt;postcode -->
<!-- gv10ad_postcode&#45;&gt;postcode -->
<g id="edge18" class="edge">
<title>gv10ad_postcode:e&#45;&gt;postcode:w</title>
<path fill="none" stroke="#29235c" stroke-width="3" d="M485.96,-1081.53C581.17,-1081.53 628.76,-736.39 720.71,-712.8"/>
<polygon fill="#29235c" stroke="#29235c" stroke-width="3" points="721.16,-716.27 730.64,-711.53 720.28,-709.33 721.16,-716.27"/>
<text text-anchor="middle" x="721.75" y="-682.73" font-family="Helvetica,sans-Serif" font-size="32.00" fill="#29235c">1</text>
<text text-anchor="middle" x="477.07" y="-1091.13" font-family="Helvetica,sans-Serif" font-size="32.00" fill="#29235c">1</text>
</g>
</g>
</svg>
