<?xml version="1.0" encoding="UTF-8" standalone="no"?>
<!DOCTYPE svg PUBLIC "-//W3C//DTD SVG 1.1//EN"
 "http://www.w3.org/Graphics/SVG/1.1/DTD/svg11.dtd">
<!-- Generated by graphviz version 2.47.0 (20210316.0004)
 -->
<!-- Title: dbml Pages: 1 -->
<svg width="1817pt" height="1951pt"
 viewBox="0.00 0.00 1816.65 1951.48" xmlns="http://www.w3.org/2000/svg" xmlns:xlink="http://www.w3.org/1999/xlink">
<g id="graph0" class="graph" transform="scale(1 1) rotate(0) translate(4 1947.48)">
<title>dbml</title>
<!-- territory -->
<g id="territory" class="node">
<title>territory</title>
<ellipse fill="none" stroke="black" stroke-width="0" cx="1535" cy="-767.53" rx="197.07" ry="130.22"/>
<polygon fill="#1d71b8" stroke="transparent" points="1398,-797.53 1398,-857.53 1673,-857.53 1673,-797.53 1398,-797.53"/>
<polygon fill="none" stroke="#29235c" points="1398,-797.53 1398,-857.53 1673,-857.53 1673,-797.53 1398,-797.53"/>
<text text-anchor="start" x="1419.04" y="-818.73" font-family="Helvetica,sans-Serif" font-weight="bold" font-size="32.00" fill="#ffffff"> &#160;&#160;&#160;&#160;&#160;&#160;territory &#160;&#160;&#160;&#160;&#160;&#160;</text>
<polygon fill="#e7e2dd" stroke="transparent" points="1398,-737.53 1398,-797.53 1673,-797.53 1673,-737.53 1398,-737.53"/>
<polygon fill="none" stroke="#29235c" points="1398,-737.53 1398,-797.53 1673,-797.53 1673,-737.53 1398,-737.53"/>
<text text-anchor="start" x="1409" y="-758.73" font-family="Helvetica,sans-Serif" font-weight="bold" font-size="32.00" fill="#29235c">id</text>
<text text-anchor="start" x="1433.89" y="-758.73" font-family="Helvetica,sans-Serif" font-size="32.00" fill="#29235c"> &#160;&#160;&#160;</text>
<text text-anchor="start" x="1601.54" y="-758.73" font-family="Helvetica,sans-Serif" font-style="italic" font-size="32.00" fill="#29235c">uuid</text>
<polygon fill="#e7e2dd" stroke="transparent" points="1398,-677.53 1398,-737.53 1673,-737.53 1673,-677.53 1398,-677.53"/>
<polygon fill="none" stroke="#29235c" points="1398,-677.53 1398,-737.53 1673,-737.53 1673,-677.53 1398,-677.53"/>
<text text-anchor="start" x="1408.6" y="-697.73" font-family="Helvetica,sans-Serif" font-size="32.00" fill="#29235c">superior_id &#160;&#160;&#160;</text>
<text text-anchor="start" x="1601.77" y="-698.73" font-family="Helvetica,sans-Serif" font-style="italic" font-size="32.00" fill="#29235c">uuid</text>
<polygon fill="none" stroke="#29235c" stroke-width="2" points="1396.5,-676.53 1396.5,-858.53 1673.5,-858.53 1673.5,-676.53 1396.5,-676.53"/>
</g>
<!-- territory&#45;&gt;territory -->
<!-- territory&#45;&gt;territory -->
<g id="edge2" class="edge">
<title>territory:e&#45;&gt;territory:w</title>
<path fill="none" stroke="#29235c" stroke-width="3" d="M1673,-707.53C1827.5,-756.9 1827.5,-915.64 1535.5,-915.64 1249.78,-915.64 1243.64,-821.1 1388.26,-770.78"/>
<polygon fill="#29235c" stroke="#29235c" stroke-width="3" points="1389.62,-774.02 1398,-767.53 1387.41,-767.38 1389.62,-774.02"/>
<text text-anchor="middle" x="1389.11" y="-777.13" font-family="Helvetica,sans-Serif" font-size="32.00" fill="#29235c">1</text>
<text text-anchor="middle" x="1664.11" y="-717.13" font-family="Helvetica,sans-Serif" font-size="32.00" fill="#29235c">1</text>
</g>
<!-- gv100ad -->
<g id="gv100ad" class="node">
<title>gv100ad</title>
<ellipse fill="none" stroke="black" stroke-width="0" cx="915.64" cy="-1431.53" rx="309.93" ry="511.89"/>
<polygon fill="#1d71b8" stroke="transparent" points="698.64,-1731.53 698.64,-1791.53 1132.64,-1791.53 1132.64,-1731.53 698.64,-1731.53"/>
<polygon fill="none" stroke="#29235c" points="698.64,-1731.53 698.64,-1791.53 1132.64,-1791.53 1132.64,-1731.53 698.64,-1731.53"/>
<text text-anchor="start" x="792.02" y="-1752.73" font-family="Helvetica,sans-Serif" font-weight="bold" font-size="32.00" fill="#ffffff"> &#160;&#160;&#160;&#160;&#160;&#160;gv100ad &#160;&#160;&#160;&#160;&#160;&#160;</text>
<polygon fill="#e7e2dd" stroke="transparent" points="698.64,-1671.53 698.64,-1731.53 1132.64,-1731.53 1132.64,-1671.53 698.64,-1671.53"/>
<polygon fill="none" stroke="#29235c" points="698.64,-1671.53 698.64,-1731.53 1132.64,-1731.53 1132.64,-1671.53 698.64,-1671.53"/>
<text text-anchor="start" x="709.64" y="-1692.73" font-family="Helvetica,sans-Serif" font-weight="bold" font-size="32.00" fill="#29235c">id</text>
<text text-anchor="start" x="734.53" y="-1692.73" font-family="Helvetica,sans-Serif" font-size="32.00" fill="#29235c"> &#160;&#160;&#160;</text>
<text text-anchor="start" x="1061.17" y="-1692.73" font-family="Helvetica,sans-Serif" font-style="italic" font-size="32.00" fill="#29235c">uuid</text>
<polygon fill="#e7e2dd" stroke="transparent" points="698.64,-1611.53 698.64,-1671.53 1132.64,-1671.53 1132.64,-1611.53 698.64,-1611.53"/>
<polygon fill="none" stroke="#29235c" points="698.64,-1611.53 698.64,-1671.53 1132.64,-1671.53 1132.64,-1611.53 698.64,-1611.53"/>
<text text-anchor="start" x="709.64" y="-1631.73" font-family="Helvetica,sans-Serif" font-size="32.00" fill="#29235c">bundesland &#160;&#160;&#160;</text>
<text text-anchor="start" x="981.22" y="-1632.73" font-family="Helvetica,sans-Serif" font-style="italic" font-size="32.00" fill="#29235c">char(2)</text>
<text text-anchor="start" x="1082.55" y="-1632.73" font-family="Helvetica,sans-Serif" font-size="32.00" fill="#29235c"> </text>
<text text-anchor="start" x="1091.44" y="-1632.73" font-family="Helvetica,sans-Serif" font-weight="bold" font-size="32.00" fill="#29235c">(!)</text>
<polygon fill="#e7e2dd" stroke="transparent" points="698.64,-1551.53 698.64,-1611.53 1132.64,-1611.53 1132.64,-1551.53 698.64,-1551.53"/>
<polygon fill="none" stroke="#29235c" points="698.64,-1551.53 698.64,-1611.53 1132.64,-1611.53 1132.64,-1551.53 698.64,-1551.53"/>
<text text-anchor="start" x="709.62" y="-1571.73" font-family="Helvetica,sans-Serif" font-size="32.00" fill="#29235c">regierungsbezirk &#160;&#160;&#160;</text>
<text text-anchor="start" x="981.43" y="-1572.73" font-family="Helvetica,sans-Serif" font-style="italic" font-size="32.00" fill="#29235c">char(1)</text>
<text text-anchor="start" x="1082.76" y="-1572.73" font-family="Helvetica,sans-Serif" font-size="32.00" fill="#29235c"> </text>
<text text-anchor="start" x="1091.65" y="-1572.73" font-family="Helvetica,sans-Serif" font-weight="bold" font-size="32.00" fill="#29235c">(!)</text>
<polygon fill="#e7e2dd" stroke="transparent" points="698.64,-1491.53 698.64,-1551.53 1132.64,-1551.53 1132.64,-1491.53 698.64,-1491.53"/>
<polygon fill="none" stroke="#29235c" points="698.64,-1491.53 698.64,-1551.53 1132.64,-1551.53 1132.64,-1491.53 698.64,-1491.53"/>
<text text-anchor="start" x="709.64" y="-1511.73" font-family="Helvetica,sans-Serif" font-size="32.00" fill="#29235c">landkreis &#160;&#160;&#160;</text>
<text text-anchor="start" x="981.22" y="-1512.73" font-family="Helvetica,sans-Serif" font-style="italic" font-size="32.00" fill="#29235c">char(2)</text>
<text text-anchor="start" x="1082.55" y="-1512.73" font-family="Helvetica,sans-Serif" font-size="32.00" fill="#29235c"> </text>
<text text-anchor="start" x="1091.44" y="-1512.73" font-family="Helvetica,sans-Serif" font-weight="bold" font-size="32.00" fill="#29235c">(!)</text>
<polygon fill="#e7e2dd" stroke="transparent" points="698.64,-1431.53 698.64,-1491.53 1132.64,-1491.53 1132.64,-1431.53 698.64,-1431.53"/>
<polygon fill="none" stroke="#29235c" points="698.64,-1431.53 698.64,-1491.53 1132.64,-1491.53 1132.64,-1431.53 698.64,-1431.53"/>
<text text-anchor="start" x="709.64" y="-1451.73" font-family="Helvetica,sans-Serif" font-size="32.00" fill="#29235c">verband &#160;&#160;&#160;</text>
<text text-anchor="start" x="981.22" y="-1452.73" font-family="Helvetica,sans-Serif" font-style="italic" font-size="32.00" fill="#29235c">char(4)</text>
<text text-anchor="start" x="1082.55" y="-1452.73" font-family="Helvetica,sans-Serif" font-size="32.00" fill="#29235c"> </text>
<text text-anchor="start" x="1091.44" y="-1452.73" font-family="Helvetica,sans-Serif" font-weight="bold" font-size="32.00" fill="#29235c">(!)</text>
<polygon fill="#e7e2dd" stroke="transparent" points="698.64,-1371.53 698.64,-1431.53 1132.64,-1431.53 1132.64,-1371.53 698.64,-1371.53"/>
<polygon fill="none" stroke="#29235c" points="698.64,-1371.53 698.64,-1431.53 1132.64,-1431.53 1132.64,-1371.53 698.64,-1371.53"/>
<text text-anchor="start" x="709.64" y="-1391.73" font-family="Helvetica,sans-Serif" font-size="32.00" fill="#29235c">gemeinde &#160;&#160;&#160;</text>
<text text-anchor="start" x="981.22" y="-1392.73" font-family="Helvetica,sans-Serif" font-style="italic" font-size="32.00" fill="#29235c">char(3)</text>
<text text-anchor="start" x="1082.55" y="-1392.73" font-family="Helvetica,sans-Serif" font-size="32.00" fill="#29235c"> </text>
<text text-anchor="start" x="1091.44" y="-1392.73" font-family="Helvetica,sans-Serif" font-weight="bold" font-size="32.00" fill="#29235c">(!)</text>
<polygon fill="#e7e2dd" stroke="transparent" points="698.64,-1311.53 698.64,-1371.53 1132.64,-1371.53 1132.64,-1311.53 698.64,-1311.53"/>
<polygon fill="none" stroke="#29235c" points="698.64,-1311.53 698.64,-1371.53 1132.64,-1371.53 1132.64,-1311.53 698.64,-1311.53"/>
<text text-anchor="start" x="709.64" y="-1331.73" font-family="Helvetica,sans-Serif" font-size="32.00" fill="#29235c">ars &#160;&#160;&#160;</text>
<text text-anchor="start" x="963.44" y="-1332.73" font-family="Helvetica,sans-Serif" font-style="italic" font-size="32.00" fill="#29235c">char(12)</text>
<text text-anchor="start" x="1082.55" y="-1332.73" font-family="Helvetica,sans-Serif" font-size="32.00" fill="#29235c"> </text>
<text text-anchor="start" x="1091.44" y="-1332.73" font-family="Helvetica,sans-Serif" font-weight="bold" font-size="32.00" fill="#29235c">(!)</text>
<polygon fill="#e7e2dd" stroke="transparent" points="698.64,-1251.53 698.64,-1311.53 1132.64,-1311.53 1132.64,-1251.53 698.64,-1251.53"/>
<polygon fill="none" stroke="#29235c" points="698.64,-1251.53 698.64,-1311.53 1132.64,-1311.53 1132.64,-1251.53 698.64,-1251.53"/>
<text text-anchor="start" x="709.64" y="-1271.73" font-family="Helvetica,sans-Serif" font-size="32.00" fill="#29235c">ags &#160;&#160;&#160;</text>
<text text-anchor="start" x="981.22" y="-1272.73" font-family="Helvetica,sans-Serif" font-style="italic" font-size="32.00" fill="#29235c">char(8)</text>
<text text-anchor="start" x="1082.55" y="-1272.73" font-family="Helvetica,sans-Serif" font-size="32.00" fill="#29235c"> </text>
<text text-anchor="start" x="1091.44" y="-1272.73" font-family="Helvetica,sans-Serif" font-weight="bold" font-size="32.00" fill="#29235c">(!)</text>
<polygon fill="#e7e2dd" stroke="transparent" points="698.64,-1191.53 698.64,-1251.53 1132.64,-1251.53 1132.64,-1191.53 698.64,-1191.53"/>
<polygon fill="none" stroke="#29235c" points="698.64,-1191.53 698.64,-1251.53 1132.64,-1251.53 1132.64,-1191.53 698.64,-1191.53"/>
<text text-anchor="start" x="709.64" y="-1211.73" font-family="Helvetica,sans-Serif" font-size="32.00" fill="#29235c">satz &#160;&#160;&#160;</text>
<text text-anchor="start" x="1030.98" y="-1212.73" font-family="Helvetica,sans-Serif" font-style="italic" font-size="32.00" fill="#29235c">text</text>
<text text-anchor="start" x="1082.55" y="-1212.73" font-family="Helvetica,sans-Serif" font-size="32.00" fill="#29235c"> </text>
<text text-anchor="start" x="1091.44" y="-1212.73" font-family="Helvetica,sans-Serif" font-weight="bold" font-size="32.00" fill="#29235c">(!)</text>
<polygon fill="#e7e2dd" stroke="transparent" points="698.64,-1131.53 698.64,-1191.53 1132.64,-1191.53 1132.64,-1131.53 698.64,-1131.53"/>
<polygon fill="none" stroke="#29235c" points="698.64,-1131.53 698.64,-1191.53 1132.64,-1191.53 1132.64,-1131.53 698.64,-1131.53"/>
<text text-anchor="start" x="709.64" y="-1151.73" font-family="Helvetica,sans-Serif" font-size="32.00" fill="#29235c">art &#160;&#160;&#160;</text>
<text text-anchor="start" x="1030.98" y="-1152.73" font-family="Helvetica,sans-Serif" font-style="italic" font-size="32.00" fill="#29235c">text</text>
<text text-anchor="start" x="1082.55" y="-1152.73" font-family="Helvetica,sans-Serif" font-size="32.00" fill="#29235c"> </text>
<text text-anchor="start" x="1091.44" y="-1152.73" font-family="Helvetica,sans-Serif" font-weight="bold" font-size="32.00" fill="#29235c">(!)</text>
<polygon fill="#e7e2dd" stroke="transparent" points="698.64,-1071.53 698.64,-1131.53 1132.64,-1131.53 1132.64,-1071.53 698.64,-1071.53"/>
<polygon fill="none" stroke="#29235c" points="698.64,-1071.53 698.64,-1131.53 1132.64,-1131.53 1132.64,-1071.53 698.64,-1071.53"/>
<text text-anchor="start" x="709.64" y="-1091.73" font-family="Helvetica,sans-Serif" font-size="32.00" fill="#29235c">gebietsstand &#160;&#160;&#160;</text>
<text text-anchor="start" x="981.22" y="-1092.73" font-family="Helvetica,sans-Serif" font-style="italic" font-size="32.00" fill="#29235c">char(8)</text>
<text text-anchor="start" x="1082.55" y="-1092.73" font-family="Helvetica,sans-Serif" font-size="32.00" fill="#29235c"> </text>
<text text-anchor="start" x="1091.44" y="-1092.73" font-family="Helvetica,sans-Serif" font-weight="bold" font-size="32.00" fill="#29235c">(!)</text>
<polygon fill="none" stroke="#29235c" stroke-width="2" points="697.64,-1070.53 697.64,-1792.53 1133.64,-1792.53 1133.64,-1070.53 697.64,-1070.53"/>
</g>
<!-- gv100ad&#45;&gt;territory -->
<!-- gv100ad&#45;&gt;territory -->
<g id="edge4" class="edge">
<title>gv100ad:e&#45;&gt;territory:w</title>
<path fill="none" stroke="#29235c" stroke-width="3" d="M1133.64,-1701.53C1345.82,-1701.53 1186.67,-797.39 1386.88,-768.25"/>
<polygon fill="#29235c" stroke="#29235c" stroke-width="3" points="1387.28,-771.73 1397,-767.53 1386.78,-764.75 1387.28,-771.73"/>
<text text-anchor="middle" x="1388.11" y="-738.73" font-family="Helvetica,sans-Serif" font-size="32.00" fill="#29235c">1</text>
<text text-anchor="middle" x="1124.75" y="-1711.13" font-family="Helvetica,sans-Serif" font-size="32.00" fill="#29235c">1</text>
</g>
<!-- gv100ad_satzart -->
<g id="gv100ad_satzart" class="node">
<title>gv100ad_satzart</title>
<ellipse fill="none" stroke="black" stroke-width="0" cx="1535" cy="-1671.53" rx="273.8" ry="172.57"/>
<polygon fill="#1d71b8" stroke="transparent" points="1344,-1731.53 1344,-1791.53 1727,-1791.53 1727,-1731.53 1344,-1731.53"/>
<polygon fill="none" stroke="#29235c" points="1344,-1731.53 1344,-1791.53 1727,-1791.53 1727,-1731.53 1344,-1731.53"/>
<text text-anchor="start" x="1354.99" y="-1752.73" font-family="Helvetica,sans-Serif" font-weight="bold" font-size="32.00" fill="#ffffff"> &#160;&#160;&#160;&#160;&#160;&#160;gv100ad_satzart &#160;&#160;&#160;&#160;&#160;&#160;</text>
<polygon fill="#e7e2dd" stroke="transparent" points="1344,-1671.53 1344,-1731.53 1727,-1731.53 1727,-1671.53 1344,-1671.53"/>
<polygon fill="none" stroke="#29235c" points="1344,-1671.53 1344,-1731.53 1727,-1731.53 1727,-1671.53 1344,-1671.53"/>
<text text-anchor="start" x="1355" y="-1692.73" font-family="Helvetica,sans-Serif" font-weight="bold" font-size="32.00" fill="#29235c">id</text>
<text text-anchor="start" x="1379.89" y="-1692.73" font-family="Helvetica,sans-Serif" font-size="32.00" fill="#29235c"> &#160;&#160;&#160;</text>
<text text-anchor="start" x="1655.54" y="-1692.73" font-family="Helvetica,sans-Serif" font-style="italic" font-size="32.00" fill="#29235c">uuid</text>
<polygon fill="#e7e2dd" stroke="transparent" points="1344,-1611.53 1344,-1671.53 1727,-1671.53 1727,-1611.53 1344,-1611.53"/>
<polygon fill="none" stroke="#29235c" points="1344,-1611.53 1344,-1671.53 1727,-1671.53 1727,-1611.53 1344,-1611.53"/>
<text text-anchor="start" x="1355" y="-1631.73" font-family="Helvetica,sans-Serif" font-size="32.00" fill="#29235c">number &#160;&#160;&#160;</text>
<text text-anchor="start" x="1682.22" y="-1632.73" font-family="Helvetica,sans-Serif" font-style="italic" font-size="32.00" fill="#29235c">int</text>
<polygon fill="#e7e2dd" stroke="transparent" points="1344,-1551.53 1344,-1611.53 1727,-1611.53 1727,-1551.53 1344,-1551.53"/>
<polygon fill="none" stroke="#29235c" points="1344,-1551.53 1344,-1611.53 1727,-1611.53 1727,-1551.53 1344,-1551.53"/>
<text text-anchor="start" x="1355" y="-1571.73" font-family="Helvetica,sans-Serif" font-size="32.00" fill="#29235c">name &#160;&#160;&#160;</text>
<text text-anchor="start" x="1664.43" y="-1572.73" font-family="Helvetica,sans-Serif" font-style="italic" font-size="32.00" fill="#29235c">text</text>
<polygon fill="none" stroke="#29235c" stroke-width="2" points="1342.5,-1550.53 1342.5,-1792.53 1727.5,-1792.53 1727.5,-1550.53 1342.5,-1550.53"/>
</g>
<!-- gv100ad&#45;&gt;gv100ad_satzart -->
<!-- gv100ad&#45;&gt;gv100ad_satzart -->
<g id="edge6" class="edge">
<title>gv100ad:e&#45;&gt;gv100ad_satzart:w</title>
<path fill="none" stroke="#29235c" stroke-width="3" d="M1133.64,-1221.53C1338.75,-1221.53 1141.21,-1627.7 1332.96,-1641.19"/>
<polygon fill="#29235c" stroke="#29235c" stroke-width="3" points="1332.89,-1644.69 1343,-1641.53 1333.13,-1637.69 1332.89,-1644.69"/>
<text text-anchor="middle" x="1334.11" y="-1651.13" font-family="Helvetica,sans-Serif" font-size="32.00" fill="#29235c">1</text>
<text text-anchor="middle" x="1124.75" y="-1231.13" font-family="Helvetica,sans-Serif" font-size="32.00" fill="#29235c">1</text>
</g>
<!-- gv100ad&#45;&gt;gv100ad_satzart -->
<!-- gv100ad&#45;&gt;gv100ad_satzart -->
<g id="edge8" class="edge">
<title>gv100ad:e&#45;&gt;gv100ad_satzart:w</title>
<path fill="none" stroke="#29235c" stroke-width="3" d="M1133.64,-1161.53C1362.86,-1161.53 1117.9,-1627.11 1332.77,-1641.21"/>
<polygon fill="#29235c" stroke="#29235c" stroke-width="3" points="1332.9,-1644.71 1343,-1641.53 1333.12,-1637.72 1332.9,-1644.71"/>
<text text-anchor="middle" x="1351.9" y="-1651.13" font-family="Helvetica,sans-Serif" font-size="32.00" fill="#29235c">1</text>
<text text-anchor="middle" x="1124.75" y="-1171.13" font-family="Helvetica,sans-Serif" font-size="32.00" fill="#29235c">1</text>
</g>
<!-- fund -->
<g id="fund" class="node">
<title>fund</title>
<ellipse fill="none" stroke="black" stroke-width="0" cx="915.64" cy="-172.53" rx="192.17" ry="172.57"/>
<polygon fill="#1d71b8" stroke="transparent" points="781.64,-232.53 781.64,-292.53 1049.64,-292.53 1049.64,-232.53 781.64,-232.53"/>
<polygon fill="none" stroke="#29235c" points="781.64,-232.53 781.64,-292.53 1049.64,-292.53 1049.64,-232.53 781.64,-232.53"/>
<text text-anchor="start" x="822.26" y="-253.73" font-family="Helvetica,sans-Serif" font-weight="bold" font-size="32.00" fill="#ffffff"> &#160;&#160;&#160;&#160;&#160;&#160;fund &#160;&#160;&#160;&#160;&#160;&#160;</text>
<polygon fill="#e7e2dd" stroke="transparent" points="781.64,-172.53 781.64,-232.53 1049.64,-232.53 1049.64,-172.53 781.64,-172.53"/>
<polygon fill="none" stroke="#29235c" points="781.64,-172.53 781.64,-232.53 1049.64,-232.53 1049.64,-172.53 781.64,-172.53"/>
<text text-anchor="start" x="792.64" y="-193.73" font-family="Helvetica,sans-Serif" font-weight="bold" font-size="32.00" fill="#29235c">id</text>
<text text-anchor="start" x="817.53" y="-193.73" font-family="Helvetica,sans-Serif" font-size="32.00" fill="#29235c"> &#160;&#160;&#160;</text>
<text text-anchor="start" x="978.17" y="-193.73" font-family="Helvetica,sans-Serif" font-style="italic" font-size="32.00" fill="#29235c">uuid</text>
<polygon fill="#e7e2dd" stroke="transparent" points="781.64,-112.53 781.64,-172.53 1049.64,-172.53 1049.64,-112.53 781.64,-112.53"/>
<polygon fill="none" stroke="#29235c" points="781.64,-112.53 781.64,-172.53 1049.64,-172.53 1049.64,-112.53 781.64,-112.53"/>
<text text-anchor="start" x="792.64" y="-132.73" font-family="Helvetica,sans-Serif" font-size="32.00" fill="#29235c">name &#160;&#160;&#160;</text>
<text text-anchor="start" x="947.98" y="-133.73" font-family="Helvetica,sans-Serif" font-style="italic" font-size="32.00" fill="#29235c">text</text>
<text text-anchor="start" x="999.55" y="-133.73" font-family="Helvetica,sans-Serif" font-size="32.00" fill="#29235c"> </text>
<text text-anchor="start" x="1008.44" y="-133.73" font-family="Helvetica,sans-Serif" font-weight="bold" font-size="32.00" fill="#29235c">(!)</text>
<polygon fill="#e7e2dd" stroke="transparent" points="781.64,-52.53 781.64,-112.53 1049.64,-112.53 1049.64,-52.53 781.64,-52.53"/>
<polygon fill="none" stroke="#29235c" points="781.64,-52.53 781.64,-112.53 1049.64,-112.53 1049.64,-52.53 781.64,-52.53"/>
<text text-anchor="start" x="792.3" y="-72.73" font-family="Helvetica,sans-Serif" font-size="32.00" fill="#29235c">territory_id &#160;&#160;&#160;</text>
<text text-anchor="start" x="978.41" y="-73.73" font-family="Helvetica,sans-Serif" font-style="italic" font-size="32.00" fill="#29235c">uuid</text>
<polygon fill="none" stroke="#29235c" stroke-width="2" points="780.64,-51.53 780.64,-293.53 1050.64,-293.53 1050.64,-51.53 780.64,-51.53"/>
</g>
<!-- fund&#45;&gt;territory -->
<!-- fund&#45;&gt;territory -->
<g id="edge10" class="edge">
<title>fund:e&#45;&gt;territory:w</title>
<path fill="none" stroke="#29235c" stroke-width="3" d="M1050.64,-82.53C1194.32,-82.53 1158.7,-227.25 1225.35,-354.53 1315.95,-527.53 1202.36,-759.22 1386.81,-767.32"/>
<polygon fill="#29235c" stroke="#29235c" stroke-width="3" points="1386.93,-770.82 1397,-767.53 1387.08,-763.82 1386.93,-770.82"/>
<text text-anchor="middle" x="1405.9" y="-738.73" font-family="Helvetica,sans-Serif" font-size="32.00" fill="#29235c">1</text>
<text text-anchor="middle" x="1041.75" y="-53.73" font-family="Helvetica,sans-Serif" font-size="32.00" fill="#29235c">1</text>
</g>
<!-- postcode -->
<g id="postcode" class="node">
<title>postcode</title>
<ellipse fill="none" stroke="black" stroke-width="0" cx="915.64" cy="-771.53" rx="263.09" ry="130.22"/>
<polygon fill="#1d71b8" stroke="transparent" points="731.64,-801.53 731.64,-861.53 1099.64,-861.53 1099.64,-801.53 731.64,-801.53"/>
<polygon fill="none" stroke="#29235c" points="731.64,-801.53 731.64,-861.53 1099.64,-861.53 1099.64,-801.53 731.64,-801.53"/>
<text text-anchor="start" x="788.47" y="-822.73" font-family="Helvetica,sans-Serif" font-weight="bold" font-size="32.00" fill="#ffffff"> &#160;&#160;&#160;&#160;&#160;&#160;postcode &#160;&#160;&#160;&#160;&#160;&#160;</text>
<polygon fill="#e7e2dd" stroke="transparent" points="731.64,-741.53 731.64,-801.53 1099.64,-801.53 1099.64,-741.53 731.64,-741.53"/>
<polygon fill="none" stroke="#29235c" points="731.64,-741.53 731.64,-801.53 1099.64,-801.53 1099.64,-741.53 731.64,-741.53"/>
<text text-anchor="start" x="742.64" y="-762.73" font-family="Helvetica,sans-Serif" font-weight="bold" font-size="32.00" fill="#29235c">id</text>
<text text-anchor="start" x="767.53" y="-762.73" font-family="Helvetica,sans-Serif" font-size="32.00" fill="#29235c"> &#160;&#160;&#160;</text>
<text text-anchor="start" x="1028.17" y="-762.73" font-family="Helvetica,sans-Serif" font-style="italic" font-size="32.00" fill="#29235c">uuid</text>
<polygon fill="#e7e2dd" stroke="transparent" points="731.64,-681.53 731.64,-741.53 1099.64,-741.53 1099.64,-681.53 731.64,-681.53"/>
<polygon fill="none" stroke="#29235c" points="731.64,-681.53 731.64,-741.53 1099.64,-741.53 1099.64,-681.53 731.64,-681.53"/>
<text text-anchor="start" x="742.62" y="-701.73" font-family="Helvetica,sans-Serif" font-size="32.00" fill="#29235c">number &#160;&#160;&#160;</text>
<text text-anchor="start" x="886.32" y="-702.73" font-family="Helvetica,sans-Serif" font-style="italic" font-size="32.00" fill="#29235c">varchar(20)</text>
<text text-anchor="start" x="1049.87" y="-702.73" font-family="Helvetica,sans-Serif" font-size="32.00" fill="#29235c"> </text>
<text text-anchor="start" x="1058.77" y="-702.73" font-family="Helvetica,sans-Serif" font-weight="bold" font-size="32.00" fill="#29235c">(!)</text>
<polygon fill="none" stroke="#29235c" stroke-width="2" points="730.64,-680.53 730.64,-862.53 1100.64,-862.53 1100.64,-680.53 730.64,-680.53"/>
</g>
<!-- user -->
<g id="user" class="node">
<title>user</title>
<ellipse fill="none" stroke="black" stroke-width="0" cx="915.64" cy="-493.53" rx="164.51" ry="130.22"/>
<polygon fill="#1d71b8" stroke="transparent" points="801.64,-523.53 801.64,-583.53 1030.64,-583.53 1030.64,-523.53 801.64,-523.53"/>
<polygon fill="none" stroke="#29235c" points="801.64,-523.53 801.64,-583.53 1030.64,-583.53 1030.64,-523.53 801.64,-523.53"/>
<text text-anchor="start" x="822.78" y="-544.73" font-family="Helvetica,sans-Serif" font-weight="bold" font-size="32.00" fill="#ffffff"> &#160;&#160;&#160;&#160;&#160;&#160;user &#160;&#160;&#160;&#160;&#160;&#160;</text>
<polygon fill="#e7e2dd" stroke="transparent" points="801.64,-463.53 801.64,-523.53 1030.64,-523.53 1030.64,-463.53 801.64,-463.53"/>
<polygon fill="none" stroke="#29235c" points="801.64,-463.53 801.64,-523.53 1030.64,-523.53 1030.64,-463.53 801.64,-463.53"/>
<text text-anchor="start" x="812.64" y="-484.73" font-family="Helvetica,sans-Serif" font-weight="bold" font-size="32.00" fill="#29235c">id</text>
<text text-anchor="start" x="837.53" y="-484.73" font-family="Helvetica,sans-Serif" font-size="32.00" fill="#29235c"> &#160;&#160;&#160;</text>
<text text-anchor="start" x="959.17" y="-484.73" font-family="Helvetica,sans-Serif" font-style="italic" font-size="32.00" fill="#29235c">uuid</text>
<polygon fill="#e7e2dd" stroke="transparent" points="801.64,-403.53 801.64,-463.53 1030.64,-463.53 1030.64,-403.53 801.64,-403.53"/>
<polygon fill="none" stroke="#29235c" points="801.64,-403.53 801.64,-463.53 1030.64,-463.53 1030.64,-403.53 801.64,-403.53"/>
<text text-anchor="start" x="812.4" y="-423.73" font-family="Helvetica,sans-Serif" font-size="32.00" fill="#29235c">stripe_id &#160;&#160;&#160;</text>
<text text-anchor="start" x="968.35" y="-424.73" font-family="Helvetica,sans-Serif" font-style="italic" font-size="32.00" fill="#29235c">text</text>
<polygon fill="none" stroke="#29235c" stroke-width="2" points="800.14,-402.53 800.14,-584.53 1031.14,-584.53 1031.14,-402.53 800.14,-402.53"/>
</g>
<!-- donation -->
<g id="donation" class="node">
<title>donation</title>
<ellipse fill="none" stroke="black" stroke-width="0" cx="284.96" cy="-343.53" rx="281.36" ry="342.48"/>
<polygon fill="#1d71b8" stroke="transparent" points="87.96,-523.53 87.96,-583.53 481.96,-583.53 481.96,-523.53 87.96,-523.53"/>
<polygon fill="none" stroke="#29235c" points="87.96,-523.53 87.96,-583.53 481.96,-583.53 481.96,-523.53 87.96,-523.53"/>
<text text-anchor="start" x="161.35" y="-544.73" font-family="Helvetica,sans-Serif" font-weight="bold" font-size="32.00" fill="#ffffff"> &#160;&#160;&#160;&#160;&#160;&#160;donation &#160;&#160;&#160;&#160;&#160;&#160;</text>
<polygon fill="#e7e2dd" stroke="transparent" points="87.96,-463.53 87.96,-523.53 481.96,-523.53 481.96,-463.53 87.96,-463.53"/>
<polygon fill="none" stroke="#29235c" points="87.96,-463.53 87.96,-523.53 481.96,-523.53 481.96,-463.53 87.96,-463.53"/>
<text text-anchor="start" x="98.96" y="-484.73" font-family="Helvetica,sans-Serif" font-weight="bold" font-size="32.00" fill="#29235c">id</text>
<text text-anchor="start" x="123.85" y="-484.73" font-family="Helvetica,sans-Serif" font-size="32.00" fill="#29235c"> &#160;&#160;&#160;</text>
<text text-anchor="start" x="410.5" y="-484.73" font-family="Helvetica,sans-Serif" font-style="italic" font-size="32.00" fill="#29235c">uuid</text>
<polygon fill="#e7e2dd" stroke="transparent" points="87.96,-403.53 87.96,-463.53 481.96,-463.53 481.96,-403.53 87.96,-403.53"/>
<polygon fill="none" stroke="#29235c" points="87.96,-403.53 87.96,-463.53 481.96,-463.53 481.96,-403.53 87.96,-403.53"/>
<text text-anchor="start" x="98.96" y="-423.73" font-family="Helvetica,sans-Serif" font-size="32.00" fill="#29235c">user_id &#160;&#160;&#160;</text>
<text text-anchor="start" x="371.41" y="-424.73" font-family="Helvetica,sans-Serif" font-style="italic" font-size="32.00" fill="#29235c">uuid</text>
<text text-anchor="start" x="431.87" y="-424.73" font-family="Helvetica,sans-Serif" font-size="32.00" fill="#29235c"> </text>
<text text-anchor="start" x="440.77" y="-424.73" font-family="Helvetica,sans-Serif" font-weight="bold" font-size="32.00" fill="#29235c">(!)</text>
<polygon fill="#e7e2dd" stroke="transparent" points="87.96,-343.53 87.96,-403.53 481.96,-403.53 481.96,-343.53 87.96,-343.53"/>
<polygon fill="none" stroke="#29235c" points="87.96,-343.53 87.96,-403.53 481.96,-403.53 481.96,-343.53 87.96,-343.53"/>
<text text-anchor="start" x="98.96" y="-363.73" font-family="Helvetica,sans-Serif" font-size="32.00" fill="#29235c">fund_id &#160;&#160;&#160;</text>
<text text-anchor="start" x="371.41" y="-364.73" font-family="Helvetica,sans-Serif" font-style="italic" font-size="32.00" fill="#29235c">uuid</text>
<text text-anchor="start" x="431.87" y="-364.73" font-family="Helvetica,sans-Serif" font-size="32.00" fill="#29235c"> </text>
<text text-anchor="start" x="440.77" y="-364.73" font-family="Helvetica,sans-Serif" font-weight="bold" font-size="32.00" fill="#29235c">(!)</text>
<polygon fill="#e7e2dd" stroke="transparent" points="87.96,-283.53 87.96,-343.53 481.96,-343.53 481.96,-283.53 87.96,-283.53"/>
<polygon fill="none" stroke="#29235c" points="87.96,-283.53 87.96,-343.53 481.96,-343.53 481.96,-283.53 87.96,-283.53"/>
<text text-anchor="start" x="98.96" y="-303.73" font-family="Helvetica,sans-Serif" font-size="32.00" fill="#29235c">postcode &#160;&#160;&#160;</text>
<text text-anchor="start" x="307.41" y="-304.73" font-family="Helvetica,sans-Serif" font-style="italic" font-size="32.00" fill="#29235c">varchar(20)</text>
<polygon fill="#e7e2dd" stroke="transparent" points="87.96,-223.53 87.96,-283.53 481.96,-283.53 481.96,-223.53 87.96,-223.53"/>
<polygon fill="none" stroke="#29235c" points="87.96,-223.53 87.96,-283.53 481.96,-283.53 481.96,-223.53 87.96,-223.53"/>
<text text-anchor="start" x="98.96" y="-243.73" font-family="Helvetica,sans-Serif" font-size="32.00" fill="#29235c">amount &#160;&#160;&#160;</text>
<text text-anchor="start" x="398.09" y="-244.73" font-family="Helvetica,sans-Serif" font-style="italic" font-size="32.00" fill="#29235c">int</text>
<text text-anchor="start" x="431.87" y="-244.73" font-family="Helvetica,sans-Serif" font-size="32.00" fill="#29235c"> </text>
<text text-anchor="start" x="440.77" y="-244.73" font-family="Helvetica,sans-Serif" font-weight="bold" font-size="32.00" fill="#29235c">(!)</text>
<polygon fill="#e7e2dd" stroke="transparent" points="87.96,-163.53 87.96,-223.53 481.96,-223.53 481.96,-163.53 87.96,-163.53"/>
<polygon fill="none" stroke="#29235c" points="87.96,-163.53 87.96,-223.53 481.96,-223.53 481.96,-163.53 87.96,-163.53"/>
<text text-anchor="start" x="98.96" y="-183.73" font-family="Helvetica,sans-Serif" font-size="32.00" fill="#29235c">org_percentage &#160;&#160;&#160;</text>
<text text-anchor="start" x="398.09" y="-184.73" font-family="Helvetica,sans-Serif" font-style="italic" font-size="32.00" fill="#29235c">int</text>
<text text-anchor="start" x="431.87" y="-184.73" font-family="Helvetica,sans-Serif" font-size="32.00" fill="#29235c"> </text>
<text text-anchor="start" x="440.77" y="-184.73" font-family="Helvetica,sans-Serif" font-weight="bold" font-size="32.00" fill="#29235c">(!)</text>
<polygon fill="#e7e2dd" stroke="transparent" points="87.96,-103.53 87.96,-163.53 481.96,-163.53 481.96,-103.53 87.96,-103.53"/>
<polygon fill="none" stroke="#29235c" points="87.96,-103.53 87.96,-163.53 481.96,-163.53 481.96,-103.53 87.96,-103.53"/>
<text text-anchor="start" x="98.59" y="-123.73" font-family="Helvetica,sans-Serif" font-size="32.00" fill="#29235c">created_at &#160;&#160;&#160;</text>
<text text-anchor="start" x="284.64" y="-124.73" font-family="Helvetica,sans-Serif" font-style="italic" font-size="32.00" fill="#29235c">timestamp</text>
<text text-anchor="start" x="432.2" y="-124.73" font-family="Helvetica,sans-Serif" font-size="32.00" fill="#29235c"> </text>
<text text-anchor="start" x="441.09" y="-124.73" font-family="Helvetica,sans-Serif" font-weight="bold" font-size="32.00" fill="#29235c">(!)</text>
<polygon fill="none" stroke="#29235c" stroke-width="2" points="86.96,-102.53 86.96,-584.53 482.96,-584.53 482.96,-102.53 86.96,-102.53"/>
</g>
<!-- donation&#45;&gt;fund -->
<!-- donation&#45;&gt;fund -->
<g id="edge14" class="edge">
<title>donation:e&#45;&gt;fund:w</title>
<path fill="none" stroke="#29235c" stroke-width="3" d="M482.96,-373.53C632.11,-373.53 628.32,-210.13 770.6,-202.79"/>
<polygon fill="#29235c" stroke="#29235c" stroke-width="3" points="770.73,-206.29 780.64,-202.53 770.56,-199.29 770.73,-206.29"/>
<text text-anchor="middle" x="771.75" y="-212.13" font-family="Helvetica,sans-Serif" font-size="32.00" fill="#29235c">1</text>
<text text-anchor="middle" x="474.07" y="-383.13" font-family="Helvetica,sans-Serif" font-size="32.00" fill="#29235c">1</text>
</g>
<!-- donation&#45;&gt;postcode -->
<!-- donation&#45;&gt;postcode -->
<g id="edge16" class="edge">
<title>donation:e&#45;&gt;postcode:w</title>
<path fill="none" stroke="#29235c" stroke-width="3" d="M482.96,-313.53C634.91,-313.53 509.56,-515.06 605.93,-632.53 645.27,-680.49 663.04,-708.37 720.3,-711.28"/>
<polygon fill="#29235c" stroke="#29235c" stroke-width="3" points="720.56,-714.79 730.64,-711.53 720.73,-707.79 720.56,-714.79"/>
<text text-anchor="middle" x="721.75" y="-721.13" font-family="Helvetica,sans-Serif" font-size="32.00" fill="#29235c">1</text>
<text text-anchor="middle" x="474.07" y="-323.13" font-family="Helvetica,sans-Serif" font-size="32.00" fill="#29235c">1</text>
</g>
<!-- donation&#45;&gt;user -->
<!-- donation&#45;&gt;user -->
<g id="edge12" class="edge">
<title>donation:e&#45;&gt;user:w</title>
<path fill="none" stroke="#29235c" stroke-width="3" d="M482.96,-433.53C623.14,-433.53 655.41,-490.64 790.32,-493.43"/>
<polygon fill="#29235c" stroke="#29235c" stroke-width="3" points="790.61,-496.93 800.64,-493.53 790.68,-489.93 790.61,-496.93"/>
<text text-anchor="middle" x="791.75" y="-503.13" font-family="Helvetica,sans-Serif" font-size="32.00" fill="#29235c">1</text>
<text text-anchor="middle" x="474.07" y="-443.13" font-family="Helvetica,sans-Serif" font-size="32.00" fill="#29235c">1</text>
</g>
<!-- gv10ad_postcode -->
<g id="gv10ad_postcode" class="node">
<title>gv10ad_postcode</title>
<ellipse fill="none" stroke="black" stroke-width="0" cx="284.96" cy="-1153.53" rx="284.93" ry="172.57"/>
<polygon fill="#1d71b8" stroke="transparent" points="85.96,-1213.53 85.96,-1273.53 484.96,-1273.53 484.96,-1213.53 85.96,-1213.53"/>
<polygon fill="none" stroke="#29235c" points="85.96,-1213.53 85.96,-1273.53 484.96,-1273.53 484.96,-1213.53 85.96,-1213.53"/>
<text text-anchor="start" x="96.93" y="-1234.73" font-family="Helvetica,sans-Serif" font-weight="bold" font-size="32.00" fill="#ffffff"> &#160;&#160;&#160;&#160;&#160;&#160;gv10ad_postcode &#160;&#160;&#160;&#160;&#160;&#160;</text>
<polygon fill="#e7e2dd" stroke="transparent" points="85.96,-1153.53 85.96,-1213.53 484.96,-1213.53 484.96,-1153.53 85.96,-1153.53"/>
<polygon fill="none" stroke="#29235c" points="85.96,-1153.53 85.96,-1213.53 484.96,-1213.53 484.96,-1153.53 85.96,-1153.53"/>
<text text-anchor="start" x="96.96" y="-1174.73" font-family="Helvetica,sans-Serif" font-weight="bold" font-size="32.00" fill="#29235c">id</text>
<text text-anchor="start" x="121.85" y="-1174.73" font-family="Helvetica,sans-Serif" font-size="32.00" fill="#29235c"> &#160;&#160;&#160;</text>
<text text-anchor="start" x="413.5" y="-1174.73" font-family="Helvetica,sans-Serif" font-style="italic" font-size="32.00" fill="#29235c">uuid</text>
<polygon fill="#e7e2dd" stroke="transparent" points="85.96,-1093.53 85.96,-1153.53 484.96,-1153.53 484.96,-1093.53 85.96,-1093.53"/>
<polygon fill="none" stroke="#29235c" points="85.96,-1093.53 85.96,-1153.53 484.96,-1153.53 484.96,-1093.53 85.96,-1093.53"/>
<text text-anchor="start" x="96.96" y="-1113.73" font-family="Helvetica,sans-Serif" font-size="32.00" fill="#29235c">postcode &#160;&#160;&#160;</text>
<text text-anchor="start" x="271.32" y="-1114.73" font-family="Helvetica,sans-Serif" font-style="italic" font-size="32.00" fill="#29235c">varchar(20)</text>
<text text-anchor="start" x="434.87" y="-1114.73" font-family="Helvetica,sans-Serif" font-size="32.00" fill="#29235c"> </text>
<text text-anchor="start" x="443.77" y="-1114.73" font-family="Helvetica,sans-Serif" font-weight="bold" font-size="32.00" fill="#29235c">(!)</text>
<polygon fill="#e7e2dd" stroke="transparent" points="85.96,-1033.53 85.96,-1093.53 484.96,-1093.53 484.96,-1033.53 85.96,-1033.53"/>
<polygon fill="none" stroke="#29235c" points="85.96,-1033.53 85.96,-1093.53 484.96,-1093.53 484.96,-1033.53 85.96,-1033.53"/>
<text text-anchor="start" x="96.96" y="-1053.73" font-family="Helvetica,sans-Serif" font-size="32.00" fill="#29235c">ars &#160;&#160;&#160;</text>
<text text-anchor="start" x="315.76" y="-1054.73" font-family="Helvetica,sans-Serif" font-style="italic" font-size="32.00" fill="#29235c">char(12)</text>
<text text-anchor="start" x="434.87" y="-1054.73" font-family="Helvetica,sans-Serif" font-size="32.00" fill="#29235c"> </text>
<text text-anchor="start" x="443.77" y="-1054.73" font-family="Helvetica,sans-Serif" font-weight="bold" font-size="32.00" fill="#29235c">(!)</text>
<polygon fill="none" stroke="#29235c" stroke-width="2" points="84.46,-1032.53 84.46,-1274.53 485.46,-1274.53 485.46,-1032.53 84.46,-1032.53"/>
</g>
<!-- gv10ad_postcode&#45;&gt;gv100ad -->
<!-- gv10ad_postcode&#45;&gt;gv100ad -->
<g id="edge20" class="edge">
<title>gv10ad_postcode:e&#45;&gt;gv100ad:w</title>
<path fill="none" stroke="#29235c" stroke-width="3" d="M485.96,-1063.53C637.77,-1063.53 546.66,-1329.19 687.56,-1341.12"/>
<polygon fill="#29235c" stroke="#29235c" stroke-width="3" points="687.51,-1344.62 697.64,-1341.53 687.79,-1337.63 687.51,-1344.62"/>
<text text-anchor="middle" x="688.75" y="-1351.13" font-family="Helvetica,sans-Serif" font-size="32.00" fill="#29235c">1</text>
<text text-anchor="middle" x="477.07" y="-1073.13" font-family="Helvetica,sans-Serif" font-size="32.00" fill="#29235c">1</text>
</g>
<!-- gv10ad_postcode&#45;&gt;postcode -->
<!-- gv10ad_postcode&#45;&gt;postcode -->
<g id="edge18" class="edge">
<title>gv10ad_postcode:e&#45;&gt;postcode:w</title>
<path fill="none" stroke="#29235c" stroke-width="3" d="M485.96,-1123.53C594.61,-1123.53 550.41,-1003.92 605.93,-910.53 657.44,-823.88 628.42,-718.98 720.41,-711.91"/>
<polygon fill="#29235c" stroke="#29235c" stroke-width="3" points="720.78,-715.4 730.64,-711.53 720.52,-708.41 720.78,-715.4"/>
<text text-anchor="middle" x="721.75" y="-682.73" font-family="Helvetica,sans-Serif" font-size="32.00" fill="#29235c">1</text>
<text text-anchor="middle" x="477.07" y="-1133.13" font-family="Helvetica,sans-Serif" font-size="32.00" fill="#29235c">1</text>
</g>
</g>
</svg>
